HIERARCHY
ROOT Hips
{
 OFFSET 0.000000 0.000000 0.000000
 CHANNELS 6 Xposition Yposition Zposition Yrotation Xrotation Zrotation
 JOINT Chest
 {
  OFFSET 0.000000 9.585900 0.002600
  CHANNELS 3 Yrotation Xrotation Zrotation
  JOINT Chest2
  {
   OFFSET 0.000000 9.601200 -0.005300
   CHANNELS 3 Yrotation Xrotation Zrotation
   JOINT Chest3
   {
    OFFSET 0.000000 9.561800 0.000000
    CHANNELS 3 Yrotation Xrotation Zrotation
    JOINT Chest4
    {
     OFFSET 0.000000 9.552100 0.000000
     CHANNELS 3 Yrotation Xrotation Zrotation
     JOINT Neck
     {
      OFFSET 0.000000 14.453000 0.000000
      CHANNELS 3 Yrotation Xrotation Zrotation
      JOINT Head
      {
       OFFSET 0.000000 8.936500 -0.011300
       CHANNELS 3 Yrotation Xrotation Zrotation
       End Site
       {
        OFFSET 0.000000 17.073600 -0.006000
       }
      }
     }
     JOINT RightCollar
     {
      OFFSET -2.921100 9.558500 0.000000
      CHANNELS 3 Yrotation Xrotation Zrotation
      JOINT RightShoulder
      {
       OFFSET -13.519700 0.000000 0.000000
       CHANNELS 3 Yrotation Xrotation Zrotation
       JOINT RightElbow
       {
        OFFSET 0.000000 -29.696600 0.000000
        CHANNELS 3 Yrotation Xrotation Zrotation
        JOINT RightWrist
        {
         OFFSET 0.000000 -24.004700 0.000000
         CHANNELS 3 Yrotation Xrotation Zrotation
         End Site
         {
          OFFSET 0.000000 -17.728500 0.000000
         }
        }
       }
      }
     }
     JOINT LeftCollar
     {
      OFFSET 2.921100 9.558500 0.000000
      CHANNELS 3 Yrotation Xrotation Zrotation
      JOINT LeftShoulder
      {
       OFFSET 13.519700 0.000000 0.000000
       CHANNELS 3 Yrotation Xrotation Zrotation
       JOINT LeftElbow
       {
        OFFSET 0.000000 -29.696600 0.000000
        CHANNELS 3 Yrotation Xrotation Zrotation
        JOINT LeftWrist
        {
         OFFSET 0.000000 -24.004700 0.000000
         CHANNELS 3 Yrotation Xrotation Zrotation
         End Site
         {
          OFFSET 0.000000 -17.728500 0.000000
         }
        }
       }
      }
     }
    }
   }
  }
 }
 JOINT RightHip
 {
  OFFSET -7.771700 -0.012900 -0.001300
  CHANNELS 3 Yrotation Xrotation Zrotation
  JOINT RightKnee
  {
   OFFSET 0.000000 -40.869800 0.001200
   CHANNELS 3 Yrotation Xrotation Zrotation
   JOINT RightAnkle
   {
    OFFSET 0.000000 -39.717900 0.002100
    CHANNELS 3 Yrotation Xrotation Zrotation
    JOINT RightToe
    {
     OFFSET 0.000000 -4.965400 11.033500
     CHANNELS 3 Yrotation Xrotation Zrotation
     End Site
     {
      OFFSET 0.000000 -1.423100 5.872300
     }
    }
   }
  }
 }
 JOINT LeftHip
 {
  OFFSET 7.771700 -0.012900 -0.001300
  CHANNELS 3 Yrotation Xrotation Zrotation
  JOINT LeftKnee
  {
   OFFSET 0.000000 -40.869800 0.001200
   CHANNELS 3 Yrotation Xrotation Zrotation
   JOINT LeftAnkle
   {
    OFFSET 0.000000 -39.717900 0.002100
    CHANNELS 3 Yrotation Xrotation Zrotation
    JOINT LeftToe
    {
     OFFSET 0.000000 -4.965400 11.033500
     CHANNELS 3 Yrotation Xrotation Zrotation
     End Site
     {
      OFFSET 0.000000 -1.423100 5.872300
     }
    }
   }
  }
 }
}
MOTION
Frames: 14
Frame Time: 0.008333
0.000000 85.388000 0.000000 0.000000 -5.767877 0.000000 0.000000 11.653817 0.000000 0.000000 -5.885947 0.000000 0.000000 -0.000000 0.000000 0.000000 -0.000000 0.000000 0.000000 12.528835 0.000000 0.000000 0.711642 0.000000 0.000000 -0.000000 0.000000 0.000000 0.000000 -90.000000 0.000000 -2.309062 0.000000 0.000000 2.309062 0.000000 0.000000 -0.000000 0.000000 0.000000 -0.000000 90.000000 0.000000 -2.309062 0.000000 0.000000 2.309062 0.000000 0.000000 8.520406 0.000000 0.000000 1.905762 0.000000 -0.000000 -4.658285 0.000000 0.000000 -0.000000 0.000000 0.000000 8.520406 0.000000 0.000000 1.905762 0.000000 -0.000000 -4.658285 0.000000 0.000000 -0.000000 0.000000
-84.729455 62.131830 18.234478 174.511452 -52.289905 -1.674058 6.626295 26.259943 0.774126 0.963765 4.400695 0.034361 1.589849 6.983557 0.066428 5.043205 21.262223 0.853085 -1.889822 18.048536 3.098669 -4.485749 -2.110106 6.314839 7.339857 4.374714 6.639567 11.601512 -26.871468 -16.447632 -77.585834 -52.784414 119.638437 -3.798471 -12.052298 -36.953895 -8.374575 1.980138 0.900330 -13.366584 -15.972212 21.331033 117.567785 -67.220762 -145.544413 11.910982 -3.312405 29.907045 2.405276 -14.680401 -3.302022 -0.859356 59.866675 -4.044730 3.175081 -4.450549 10.960761 0.173630 -0.432737 0.093029 -4.724280 -11.481196 3.932104 30.939511 75.254006 32.767062 1.110856 -10.859117 -5.616730 0.293501 0.766208 0.128315
-84.729966 62.131251 18.237830 174.486836 -52.293780 -1.659829 6.604274 26.264869 0.778131 0.916716 4.405929 0.051999 1.575138 6.988881 0.072590 4.998832 21.274814 0.866845 -1.745719 17.944476 3.043495 -4.209260 -2.316524 6.172110 7.224324 4.451154 6.534838 11.481045 -26.588325 -16.498592 -77.040197 -52.707004 119.328431 -4.018552 -11.660279 -37.256126 -8.348942 1.960432 0.942831 -13.447324 -15.383818 21.392075 116.998387 -67.273016 -145.042939 11.984320 -3.146907 29.765466 2.425587 -14.675989 -3.293054 -0.868938 59.857827 -4.056067 3.175911 -4.454558 10.966766 0.175360 -0.425983 0.091280 -4.727488 -11.476354 3.923005 30.990680 75.241250 32.819051 1.126165 -10.843461 -5.627645 0.293699 0.761823 0.123217
-84.726997 62.129990 18.242281 174.463459 -52.292217 -1.669119 6.483093 26.269777 0.790589 0.960670 4.406284 0.033007 1.560226 6.992768 0.077696 4.953994 21.285572 0.877223 -1.603267 17.843580 2.993644 -3.936953 -2.516241 6.039127 7.115408 4.522559 6.437129 11.394323 -26.317566 -16.570982 -76.606043 -52.678342 119.096429 -4.210927 -11.282739 -37.581081 -8.314032 1.941833 0.993864 -13.500059 -14.832436 21.429296 116.195366 -67.268721 -144.390222 12.080238 -2.989497 29.607740 2.443325 -14.679810 -3.255701 -0.900578 59.847653 -4.087251 3.178538 -4.444611 10.973559 0.174819 -0.432735 0.088732 -4.726047 -11.475488 3.941246 31.015923 75.231801 32.870698 1.099256 -10.835046 -5.664243 0.312902 0.761311 0.138487
-84.726385 62.129021 18.246021 174.447006 -52.292427 -1.670389 6.389103 26.280329 0.786096 0.970504 4.406998 0.029794 1.544996 6.995716 0.082405 4.908162 21.295130 0.886249 -1.464267 17.746035 2.948185 -3.671934 -2.708753 5.914733 7.013507 4.579467 6.347700 11.335088 -26.045793 -16.663032 -76.250207 -52.671550 118.920557 -4.349110 -10.923990 -37.871734 -8.249496 1.921994 1.020285 -13.556491 -14.316065 21.477944 115.174403 -67.201886 -143.594892 12.166454 -2.835616 29.461752 2.459442 -14.681341 -3.234610 -0.917747 59.840546 -4.106365 3.174981 -4.437476 10.981163 0.176659 -0.434186 0.088757 -4.725757 -11.474572 3.949707 31.034887 75.227528 32.897697 1.093816 -10.830244 -5.671400 0.322023 0.759975 0.135097
-84.725122 62.128012 18.249446 174.415006 -52.291568 -1.663638 6.330715 26.291059 0.788824 0.960755 4.408327 0.032784 1.529703 6.997900 0.086870 4.862178 21.303724 0.894506 -1.330286 17.652820 2.906642 -3.416811 -2.892240 5.798409 6.921545 4.620443 6.268191 11.301275 -25.762818 -16.772967 -75.966446 -52.679895 118.794117 -4.436694 -10.568297 -38.087984 -8.179942 1.902702 1.051141 -13.598319 -13.838629 21.510998 114.053146 -67.095060 -142.736454 12.224573 -2.685751 29.333956 2.486393 -14.685965 -3.206822 -0.948807 59.834157 -4.138420 3.171897 -4.427399 10.989992 0.183014 -0.440049 0.088830 -4.723941 -11.474334 3.960412 31.073264 75.223763 32.936580 1.108594 -10.823375 -5.680508 0.313420 0.756252 0.131114
-84.723344 62.126493 18.252785 174.381288 -52.285146 -1.658672 6.318449 26.289557 0.803093 0.915633 4.416779 0.045368 1.514898 6.999213 0.090966 4.818017 21.311066 0.901873 -1.214644 17.581057 2.852957 -3.162153 -3.078333 5.703346 6.839985 4.648542 6.199821 11.291769 -25.462875 -16.896281 -75.757190 -52.711559 118.718236 -4.496544 -10.195663 -38.217135 -8.107531 1.883663 1.086867 -13.634822 -13.392074 21.533072 112.981564 -66.982061 -141.928045 12.268615 -2.553019 29.231393 2.511510 -14.693745 -3.177726 -0.969448 59.822257 -4.160232 3.168552 -4.419148 10.998312 0.175858 -0.444066 0.085473 -4.732378 -11.479447 3.976931 31.132868 75.220791 32.985517 1.124367 -10.817308 -5.685765 0.300877 0.753609 0.124915
-84.720970 62.125229 18.255362 174.347700 -52.278991 -1.656554 6.250311 26.301058 0.809003 0.925928 4.413418 0.043376 1.501231 7.000173 0.095044 4.777364 21.317468 0.909616 -1.095729 17.500074 2.817742 -2.935582 -3.237347 5.602230 6.765859 4.666401 6.140626 11.300694 -25.146233 -17.023866 -75.617148 -52.775818 118.683820 -4.541471 -9.785339 -38.255860 -8.033178 1.866629 1.129392 -13.667798 -12.979664 21.544639 112.052946 -66.886551 -141.243808 12.304157 -2.437612 29.159470 2.532472 -14.703610 -3.144503 -0.994284 59.815318 -4.186468 3.163482 -4.408056 11.001616 0.177191 -0.447916 0.086425 -4.728455 -11.484649 4.001068 31.164392 75.220823 33.017594 1.119358 -10.810277 -5.686870 0.301669 0.747812 0.118967
-84.717493 62.123227 18.257980 174.295068 -52.266280 -1.645091 6.203090 26.304641 0.823950 0.970198 4.402510 0.029784 1.454985 7.008503 0.114082 4.740164 21.323312 0.918928 -0.975228 17.409526 2.798924 -2.739515 -3.369818 5.492112 6.698662 4.678526 6.086037 11.320110 -24.819256 -17.148442 -75.539273 -52.872401 118.681092 -4.572202 -9.313959 -38.202371 -7.956422 1.853977 1.177986 -13.696518 -12.603908 21.547668 111.317852 -66.816114 -140.719178 12.313897 -2.318001 29.114795 2.557999 -14.722718 -3.109783 -1.002691 59.809265 -4.194595 3.161889 -4.397614 11.000917 0.177154 -0.448877 0.086378 -4.713869 -11.494569 4.031527 31.192673 75.221384 33.047095 1.124321 -10.807952 -5.695693 0.299483 0.746632 0.118789
-84.715409 62.121813 18.259259 174.259506 -52.257257 -1.636672 6.197704 26.301066 0.838486 0.964511 4.403075 0.030819 1.411473 7.015504 0.133730 4.752533 21.321183 0.900159 -0.905525 17.347295 2.812353 -2.548129 -3.506186 5.397144 6.600903 4.689338 6.080975 11.341754 -24.484111 -17.264037 -75.522405 -53.003513 118.714026 -4.592199 -8.768656 -38.067511 -7.919258 1.857730 1.272689 -13.729074 -12.253621 21.546700 110.828126 -66.773372 -140.384403 12.277033 -2.162639 29.084687 2.575645 -14.737312 -3.084829 -1.036577 59.805293 -4.229175 3.174443 -4.384918 11.003967 0.176104 -0.455225 0.086038 -4.706081 -11.501185 4.051194 31.216678 75.222379 33.069580 1.132623 -10.808165 -5.701939 0.291883 0.747937 0.119212
-84.714034 62.119923 18.260139 174.227886 -52.244523 -1.625122 6.188400 26.294231 0.847099 0.926886 4.410739 0.044369 1.398514 7.014418 0.138299 4.697296 21.330110 0.926086 -0.800410 17.276875 2.753633 -2.372720 -3.635362 5.304914 6.572834 4.691626 6.009778 11.358919 -24.138852 -17.366832 -75.567278 -53.176457 118.785770 -4.619621 -8.145959 -37.863933 -7.820148 1.841779 1.294938 -13.774462 -11.920059 21.544312 110.616147 -66.766759 -140.255902 12.189613 -1.951076 29.053053 2.603507 -14.757230 -3.065342 -1.076796 59.807212 -4.263860 3.173121 -4.371191 11.003112 0.179977 -0.463878 0.089103 -4.696880 -11.513565 4.067312 31.230685 75.224823 33.080043 1.141423 -10.804444 -5.703318 0.289286 0.746550 0.118653
-84.710647 62.118515 18.260267 174.193973 -52.235615 -1.621206 6.095820 26.305370 0.851231 0.915506 4.411315 0.050378 1.441222 7.006063 0.122519 4.645182 21.337286 0.954323 -0.705957 17.209496 2.694776 -2.217334 -3.760025 5.217026 6.550814 4.685645 5.943020 11.370712 -23.788142 -17.459836 -75.664332 -53.382117 118.889255 -4.669312 -7.447325 -37.596799 -7.727518 1.820106 1.248316 -13.829273 -11.590401 21.597195 110.652863 -66.799302 -140.326080 12.067521 -1.684714 29.008137 2.625918 -14.770244 -3.037928 -1.098579 59.804474 -4.281859 3.176597 -4.363700 11.001783 0.180869 -0.466149 0.090573 -4.683832 -11.521813 4.092345 31.271569 75.228311 33.123227 1.143721 -10.805004 -5.708661 0.286475 0.744146 0.118629
-84.707173 62.116533 18.260230 174.162473 -52.223143 -1.617494 6.049006 26.304329 0.866560 0.908167 4.411246 0.055102 1.447075 7.003091 0.120548 4.620296 21.339929 0.969654 -0.652630 17.175657 2.632543 -2.070016 -3.905405 5.158591 6.509068 4.673439 5.904294 11.377666 -23.440661 -17.543954 -75.784742 -53.597654 119.010940 -4.732309 -6.691370 -37.263442 -7.666627 1.807466 1.224931 -13.854643 -11.291694 21.633862 110.866684 -66.858107 -140.553195 11.911062 -1.367095 28.918619 2.647607 -14.786104 -3.010456 -1.124173 59.800506 -4.305509 3.178551 -4.357075 11.002360 0.178265 -0.466936 0.091460 -4.671373 -11.533955 4.116222 31.320562 75.227961 33.177280 1.132683 -10.803868 -5.714228 0.287996 0.742774 0.119943
-84.703440 62.115599 18.258825 174.146896 -52.219385 -1.625198 6.015135 26.306193 0.886699 0.902951 4.410641 0.059352 1.438932 7.002350 0.127108 4.598256 21.341343 0.987268 -0.587996 17.103063 2.612711 -1.961012 -4.007089 5.064606 6.465269 4.658115 5.865554 11.372826 -23.105198 -17.614388 -75.896581 -53.800476 119.132869 -4.779578 -5.880622 -36.845501 -7.619832 1.804810 1.261763 -13.840505 -11.035931 21.594951 111.201593 -66.928334 -140.874985 11.688925 -0.980724 28.737095 2.657860 -14.791857 -2.986494 -1.140482 59.799417 -4.318029 3.179620 -4.351675 11.001923 0.176787 -0.469706 0.090181 -4.673371 -11.533842 4.148289 31.305436 75.236033 33.159023 1.118155 -10.811991 -5.725883 0.304525 0.744279 0.128960
